<svg width="2000px" height="1144px"
 viewBox="0.00 0.00 943.67 540.00" xmlns="http://www.w3.org/2000/svg" xmlns:xlink="http://www.w3.org/1999/xlink">
<g id="graph0" class="graph" transform="scale(1.0 1.0) rotate(0) translate(4 536)">
<title>ContextMapGraph</title>
<polygon fill="white" stroke="transparent" points="-4,4 -4,-536 939.67,-536 939.67,4 -4,4"/>
<!-- GestionAsistenciaContext -->
<g id="node1" class="node">
<title>GestionAsistenciaContext</title>
<polygon fill="none" stroke="black" stroke-width="2" points="39.82,-64.84 35.43,-62.19 31.52,-59.51 28.12,-56.82 25.23,-54.11 22.88,-51.42 21.07,-48.73 19.81,-46.07 19.12,-43.45 19,-40.87 19.45,-38.34 20.47,-35.87 22.08,-33.47 24.25,-31.14 26.99,-28.9 30.29,-26.75 34.14,-24.69 38.53,-22.73 43.44,-20.87 48.85,-19.12 54.76,-17.49 61.13,-15.96 67.95,-14.55 75.19,-13.25 82.82,-12.07 90.82,-11 99.16,-10.05 107.81,-9.22 116.74,-8.5 125.92,-7.89 135.31,-7.4 144.88,-7.01 154.6,-6.73 164.43,-6.55 174.34,-6.47 184.31,-6.49 194.28,-6.61 204.24,-6.81 214.14,-7.11 223.96,-7.49 233.67,-7.95 243.23,-8.5 252.63,-9.12 261.82,-9.82 270.79,-10.59 279.51,-11.43 287.96,-12.34 296.12,-13.32 303.96,-14.37 311.47,-15.48 318.62,-16.65 325.42,-17.88 331.83,-19.18 337.86,-20.53 343.48,-21.95 348.69,-23.42 353.49,-24.95 357.86,-26.53 361.8,-28.18 365.31,-29.88 368.39,-31.63 371.03,-33.43 373.23,-35.29 375,-37.19 376.34,-39.14 377.24,-41.14 377.72,-43.18 377.78,-45.26 377.42,-47.38 376.65,-49.53 375.47,-51.7 373.89,-53.9 371.91,-56.12 369.55,-58.36 366.81,-60.6 363.7,-62.84 360.22,-65.08 356.39,-67.31 352.21,-69.52 347.68,-71.7 342.83,-73.85 337.66,-75.96 332.17,-78.01 326.38,-80.01 320.3,-81.94 313.93,-83.8 307.29,-85.57 300.39,-87.25 293.24,-88.83 285.86,-90.3 278.25,-91.66 270.43,-92.89 262.41,-94 254.21,-94.97 245.85,-95.8 237.34,-96.48 228.69,-97.01 219.93,-97.38 211.08,-97.59 202.16,-97.65 193.18,-97.53 184.16,-97.26 175.14,-96.81 166.14,-96.2 157.17,-95.43 148.26,-94.5 139.44,-93.41 130.73,-92.16 122.16,-90.77 113.76,-89.22 105.55,-87.54 97.56,-85.73 89.81,-83.79 82.34,-81.74 75.16,-79.57 68.32,-77.31 61.82,-74.96 55.7,-72.52 49.97,-70.02 44.67,-67.45 39.82,-64.84"/>
<text text-anchor="middle" x="205.44" y="-45.08" font-family="sans-serif" font-size="16.00">GestionAsistenciaContext</text>
</g>
<!-- GestionEstudiantesContext -->
<g id="node2" class="node">
<title>GestionEstudiantesContext</title>
<polygon fill="none" stroke="black" stroke-width="2" points="69.98,-225.95 61.49,-223.89 53.43,-221.75 45.83,-219.55 38.72,-217.29 32.14,-214.99 26.11,-212.65 20.65,-210.28 15.8,-207.9 11.57,-205.5 7.98,-203.09 5.05,-200.69 2.78,-198.3 1.19,-195.93 0.28,-193.58 0.06,-191.26 0.52,-188.98 1.66,-186.74 3.47,-184.55 5.95,-182.41 9.07,-180.33 12.83,-178.31 17.2,-176.36 22.17,-174.48 27.7,-172.66 33.78,-170.92 40.37,-169.26 47.45,-167.68 54.98,-166.18 62.92,-164.76 71.25,-163.42 79.93,-162.17 88.93,-161 98.19,-159.92 107.7,-158.92 117.41,-158.02 127.28,-157.19 137.28,-156.46 147.37,-155.82 157.52,-155.26 167.68,-154.79 177.84,-154.41 187.96,-154.12 198,-153.91 207.95,-153.8 217.76,-153.78 227.42,-153.84 236.9,-154 246.18,-154.24 255.23,-154.58 264.05,-155.01 272.62,-155.53 280.91,-156.14 288.92,-156.85 296.63,-157.65 304.04,-158.54 311.14,-159.52 317.91,-160.6 324.35,-161.76 330.47,-163.02 336.24,-164.37 341.68,-165.81 346.78,-167.34 351.53,-168.95 355.94,-170.65 360,-172.44 363.71,-174.3 367.08,-176.23 370.1,-178.24 372.77,-180.32 375.09,-182.47 377.06,-184.67 378.68,-186.93 379.94,-189.23 380.85,-191.58 381.4,-193.97 381.59,-196.38 381.41,-198.82 380.87,-201.27 379.95,-203.73 378.66,-206.19 376.99,-208.63 374.93,-211.07 372.49,-213.47 369.65,-215.84 366.42,-218.16 362.8,-220.44 358.77,-222.65 354.34,-224.79 349.52,-226.85 344.28,-228.83 338.65,-230.71 332.63,-232.49 326.21,-234.15 319.4,-235.7 312.22,-237.13 304.66,-238.43 296.75,-239.59 288.49,-240.62 279.9,-241.49 271,-242.22 261.81,-242.8 252.34,-243.23 242.62,-243.5 232.68,-243.61 222.54,-243.57 212.23,-243.37 201.79,-243.02 191.24,-242.51 180.63,-241.85 169.97,-241.04 159.32,-240.09 148.71,-239 138.18,-237.78 127.77,-236.43 117.51,-234.95 107.45,-233.35 97.63,-231.65 88.08,-229.84 78.85,-227.94 69.98,-225.95"/>
<text text-anchor="middle" x="205.44" y="-191.84" font-family="sans-serif" font-size="16.00">GestionEstudiantesContext</text>
</g>
<!-- GestionEstudiantesContext&#45;&gt;GestionAsistenciaContext -->
<g id="edge1" class="edge">
<title>GestionEstudiantesContext&#45;&gt;GestionAsistenciaContext</title>
<path fill="none" stroke="black" stroke-width="2" d="M205.44,-153.55C205.44,-136.16 205.44,-115.79 205.44,-97.73"/>
<text text-anchor="middle" x="239.94" y="-119.16" font-family="sans-serif" font-size="12.00">Partnership</text>
</g>
<!-- GestionMatriculasContext -->
<g id="node3" class="node">
<title>GestionMatriculasContext</title>
<polygon fill="none" stroke="black" stroke-width="2" points="525.47,-379.19 515.19,-380.54 504.75,-381.78 494.18,-382.89 483.54,-383.88 472.86,-384.74 462.18,-385.46 451.54,-386.05 440.98,-386.49 430.54,-386.79 420.25,-386.94 410.14,-386.95 400.25,-386.81 390.61,-386.52 381.24,-386.08 372.17,-385.5 363.43,-384.77 355.03,-383.9 346.99,-382.9 339.34,-381.75 332.08,-380.48 325.23,-379.08 318.79,-377.56 312.77,-375.92 307.19,-374.18 302.04,-372.33 297.32,-370.39 293.04,-368.36 289.19,-366.25 285.77,-364.07 282.77,-361.82 280.19,-359.52 278.03,-357.17 276.28,-354.78 274.92,-352.37 273.96,-349.93 273.37,-347.47 273.16,-345.02 273.32,-342.56 273.83,-340.12 274.7,-337.7 275.9,-335.3 277.44,-332.93 279.3,-330.61 281.48,-328.34 283.98,-326.11 286.79,-323.95 289.9,-321.85 293.3,-319.83 297.01,-317.87 301,-316 305.29,-314.21 309.86,-312.5 314.71,-310.89 319.85,-309.37 325.27,-307.94 330.96,-306.6 336.93,-305.37 343.17,-304.23 349.68,-303.2 356.45,-302.26 363.49,-301.43 370.77,-300.69 378.3,-300.06 386.07,-299.53 394.06,-299.1 402.27,-298.77 410.69,-298.54 419.3,-298.41 428.09,-298.37 437.03,-298.43 446.11,-298.59 455.31,-298.84 464.61,-299.19 473.98,-299.62 483.39,-300.15 492.82,-300.77 502.25,-301.47 511.63,-302.27 520.95,-303.14 530.16,-304.11 539.23,-305.15 548.14,-306.28 556.83,-307.49 565.29,-308.78 573.48,-310.14 581.35,-311.58 588.88,-313.09 596.03,-314.68 602.77,-316.33 609.07,-318.05 614.89,-319.84 620.21,-321.68 625,-323.59 629.23,-325.55 632.88,-327.56 635.93,-329.62 638.36,-331.72 640.15,-333.87 641.3,-336.05 641.79,-338.26 641.61,-340.49 640.76,-342.74 639.25,-345.01 637.06,-347.29 634.22,-349.56 630.72,-351.84 626.59,-354.1 621.83,-356.34 616.47,-358.56 610.52,-360.74 604.02,-362.89 596.98,-364.98 589.44,-367.03 581.42,-369.01 572.97,-370.92 564.12,-372.75 554.91,-374.51 545.37,-376.17 535.54,-377.73 525.47,-379.19"/>
<text text-anchor="middle" x="443.44" y="-336.53" font-family="sans-serif" font-size="16.00">GestionMatriculasContext</text>
</g>
<!-- GestionMatriculasContext&#45;&gt;GestionEstudiantesContext -->
<g id="edge3" class="edge">
<title>GestionMatriculasContext&#45;&gt;GestionEstudiantesContext</title>
<path fill="none" stroke="black" stroke-width="2" d="M377.78,-299.96C347.64,-281.9 311.76,-260.38 280.55,-241.68"/>
<text text-anchor="middle" x="366.94" y="-265.92" font-family="sans-serif" font-size="12.00">Partnership</text>
</g>
<!-- GestionRecursosAcademicosContext -->
<g id="node4" class="node">
<title>GestionRecursosAcademicosContext</title>
<polygon fill="none" stroke="black" stroke-width="2" points="880.25,-220.56 871.51,-222.94 862.28,-225.23 852.59,-227.44 842.48,-229.54 831.99,-231.53 821.16,-233.4 810.01,-235.14 798.6,-236.75 786.95,-238.22 775.1,-239.54 763.1,-240.71 750.97,-241.73 738.76,-242.58 726.49,-243.27 714.2,-243.8 701.93,-244.17 689.7,-244.37 677.54,-244.4 665.49,-244.28 653.57,-243.99 641.81,-243.54 630.23,-242.93 618.86,-242.18 607.71,-241.28 596.82,-240.24 586.2,-239.07 575.87,-237.77 565.85,-236.35 556.15,-234.81 546.79,-233.17 537.79,-231.43 529.16,-229.6 520.92,-227.69 513.07,-225.71 505.63,-223.66 498.6,-221.56 492.02,-219.41 485.87,-217.22 480.18,-215.01 474.95,-212.76 470.2,-210.5 465.93,-208.24 462.15,-205.97 458.88,-203.7 456.12,-201.45 453.88,-199.21 452.16,-197 450.98,-194.81 450.35,-192.66 450.27,-190.54 450.74,-188.46 451.78,-186.43 453.39,-184.44 455.57,-182.5 458.33,-180.61 461.66,-178.78 465.57,-177 470.06,-175.27 475.13,-173.61 480.77,-172 486.98,-170.45 493.75,-168.96 501.08,-167.54 508.95,-166.17 517.35,-164.87 526.26,-163.63 535.68,-162.46 545.57,-161.35 555.93,-160.3 566.73,-159.33 577.93,-158.42 589.52,-157.58 601.47,-156.81 613.73,-156.12 626.29,-155.5 639.1,-154.96 652.13,-154.5 665.34,-154.12 678.68,-153.82 692.12,-153.61 705.61,-153.49 719.11,-153.46 732.58,-153.53 745.96,-153.69 759.21,-153.95 772.29,-154.32 785.15,-154.79 797.74,-155.37 810.02,-156.05 821.95,-156.85 833.48,-157.75 844.57,-158.77 855.17,-159.91 865.26,-161.15 874.79,-162.51 883.73,-163.98 892.05,-165.56 899.72,-167.25 906.7,-169.05 912.98,-170.94 918.53,-172.94 923.34,-175.03 927.38,-177.21 930.66,-179.48 933.15,-181.82 934.86,-184.23 935.77,-186.71 935.9,-189.24 935.24,-191.82 933.8,-194.43 931.6,-197.08 928.64,-199.75 924.94,-202.42 920.52,-205.1 915.4,-207.76 909.61,-210.41 903.17,-213.02 896.11,-215.59 888.46,-218.1 880.25,-220.56"/>
<text text-anchor="middle" x="682.44" y="-191.84" font-family="sans-serif" font-size="16.00">GestionRecursosAcademicosContext</text>
</g>
<!-- GestionMatriculasContext&#45;&gt;GestionRecursosAcademicosContext -->
<g id="edge2" class="edge">
<title>GestionMatriculasContext&#45;&gt;GestionRecursosAcademicosContext</title>
<path fill="none" stroke="black" stroke-width="2" d="M506.55,-301.66C537.53,-283.16 575.07,-260.75 607.5,-241.39"/>
<text text-anchor="middle" x="603.94" y="-265.92" font-family="sans-serif" font-size="12.00">Partnership</text>
</g>
<!-- GestionNotaseInformesContext -->
<g id="node5" class="node">
<title>GestionNotaseInformesContext</title>
<polygon fill="none" stroke="black" stroke-width="2" points="598.56,-89.1 585.96,-87.99 573.67,-86.77 561.74,-85.45 550.22,-84.04 539.16,-82.54 528.6,-80.96 518.58,-79.3 509.15,-77.56 500.34,-75.75 492.18,-73.88 484.7,-71.95 477.93,-69.97 471.89,-67.95 466.61,-65.88 462.09,-63.78 458.34,-61.65 455.37,-59.49 453.19,-57.32 451.79,-55.14 451.17,-52.95 451.32,-50.75 452.22,-48.56 453.86,-46.38 456.23,-44.21 459.29,-42.06 463.03,-39.93 467.41,-37.83 472.41,-35.76 477.99,-33.73 484.12,-31.74 490.77,-29.8 497.91,-27.9 505.48,-26.06 513.46,-24.27 521.81,-22.55 530.5,-20.89 539.47,-19.29 548.71,-17.78 558.16,-16.33 567.8,-14.97 577.6,-13.68 587.51,-12.48 597.51,-11.37 607.58,-10.35 617.67,-9.43 627.77,-8.6 637.86,-7.87 647.9,-7.24 657.89,-6.71 667.8,-6.29 677.61,-5.98 687.31,-5.78 696.9,-5.69 706.35,-5.71 715.65,-5.84 724.8,-6.09 733.79,-6.45 742.61,-6.92 751.26,-7.51 759.73,-8.22 768.01,-9.03 776.11,-9.96 784.01,-11 791.71,-12.15 799.2,-13.41 806.49,-14.77 813.55,-16.23 820.39,-17.8 827,-19.45 833.37,-21.2 839.48,-23.04 845.33,-24.95 850.91,-26.95 856.19,-29.01 861.17,-31.15 865.84,-33.34 870.17,-35.59 874.14,-37.88 877.75,-40.21 880.96,-42.58 883.76,-44.98 886.14,-47.39 888.07,-49.82 889.52,-52.25 890.49,-54.67 890.95,-57.09 890.88,-59.48 890.27,-61.85 889.1,-64.18 887.35,-66.47 885.01,-68.71 882.07,-70.89 878.53,-73.01 874.37,-75.06 869.58,-77.03 864.18,-78.91 858.15,-80.7 851.51,-82.4 844.26,-83.99 836.42,-85.48 827.99,-86.86 818.99,-88.12 809.45,-89.26 799.38,-90.28 788.83,-91.17 777.81,-91.94 766.36,-92.58 754.52,-93.08 742.33,-93.46 729.83,-93.7 717.07,-93.81 704.08,-93.79 690.93,-93.64 677.66,-93.36 664.33,-92.95 650.99,-92.42 637.68,-91.76 624.47,-90.99 611.41,-90.1 598.56,-89.1"/>
<text text-anchor="middle" x="682.44" y="-45.08" font-family="sans-serif" font-size="16.00">GestionNotaseInformesContext</text>
</g>
<!-- GestionRecursosAcademicosContext&#45;&gt;GestionNotaseInformesContext -->
<g id="edge4" class="edge">
<title>GestionRecursosAcademicosContext&#45;&gt;GestionNotaseInformesContext</title>
<path fill="none" stroke="black" stroke-width="2" d="M682.44,-153.55C682.44,-134.82 682.44,-112.64 682.44,-93.61"/>
<text text-anchor="middle" x="716.94" y="-119.16" font-family="sans-serif" font-size="12.00">Partnership</text>
</g>
<!-- GestionPagosContext -->
<g id="node6" class="node">
<title>GestionPagosContext</title>
<polygon fill="none" stroke="black" stroke-width="2" points="558.46,-455.08 565.18,-457.21 571.55,-459.4 577.53,-461.65 583.1,-463.94 588.23,-466.28 592.91,-468.65 597.1,-471.05 600.8,-473.46 603.99,-475.88 606.65,-478.3 608.77,-480.7 610.34,-483.1 611.36,-485.47 611.82,-487.81 611.72,-490.11 611.07,-492.37 609.86,-494.59 608.11,-496.75 605.81,-498.85 602.99,-500.89 599.66,-502.86 595.83,-504.77 591.52,-506.6 586.75,-508.35 581.54,-510.03 575.92,-511.62 569.92,-513.14 563.55,-514.57 556.84,-515.91 549.83,-517.17 542.55,-518.34 535.01,-519.43 527.27,-520.43 519.33,-521.34 511.24,-522.16 503.03,-522.89 494.72,-523.54 486.35,-524.1 477.94,-524.57 469.52,-524.95 461.13,-525.24 452.78,-525.45 444.5,-525.57 436.31,-525.6 428.24,-525.54 420.31,-525.4 412.54,-525.17 404.94,-524.85 397.54,-524.44 390.34,-523.94 383.36,-523.35 376.62,-522.67 370.12,-521.91 363.88,-521.05 357.9,-520.11 352.19,-519.07 346.75,-517.95 341.59,-516.74 336.72,-515.44 332.14,-514.05 327.84,-512.57 323.84,-511.01 320.13,-509.37 316.71,-507.65 313.59,-505.85 310.76,-503.97 308.23,-502.02 305.99,-500 304.04,-497.91 302.4,-495.76 301.04,-493.56 299.99,-491.3 299.23,-489 298.77,-486.66 298.6,-484.29 298.74,-481.89 299.18,-479.47 299.93,-477.04 300.98,-474.61 302.34,-472.18 304.01,-469.76 305.99,-467.36 308.29,-465 310.91,-462.67 313.84,-460.38 317.1,-458.16 320.68,-455.99 324.58,-453.9 328.8,-451.9 333.33,-449.98 338.19,-448.16 343.36,-446.44 348.84,-444.84 354.62,-443.35 360.7,-441.99 367.06,-440.77 373.71,-439.68 380.62,-438.73 387.79,-437.93 395.19,-437.27 402.82,-436.78 410.66,-436.43 418.68,-436.24 426.86,-436.21 435.19,-436.34 443.64,-436.62 452.18,-437.06 460.79,-437.65 469.43,-438.39 478.09,-439.28 486.73,-440.31 495.32,-441.48 503.83,-442.78 512.22,-444.21 520.47,-445.76 528.55,-447.43 536.42,-449.2 544.04,-451.07 551.4,-453.04 558.46,-455.08"/>
<text text-anchor="middle" x="443.44" y="-480.27" font-family="sans-serif" font-size="16.00">GestionPagosContext</text>
</g>
<!-- GestionPagosContext&#45;&gt;GestionMatriculasContext -->
<g id="edge5" class="edge">
<title>GestionPagosContext&#45;&gt;GestionMatriculasContext</title>
<path fill="none" stroke="black" stroke-width="2" d="M443.44,-436.27C443.44,-420.3 443.44,-402.49 443.44,-386.64"/>
<text text-anchor="middle" x="485.44" y="-408.54" font-family="sans-serif" font-size="12.00">Shared Kernel</text>
</g>
</g>
</svg>
